<svg xmlns="http://www.w3.org/2000/svg" width="100.67" height="66.03" viewBox="0 0 100.67 66.03">
  <path id="Tracé_35" data-name="Tracé 35" d="M2670.33,4086.92h0c-.7-7.076.681-14.755,7.376-23.452a31.049,31.049,0,0,1,16.812-11.446,32.753,32.753,0,0,1,39.945,23.3h.025s2.586,10.181,7.543,18.071c9.787,14.175,19.467,22.984,28.807,23.62H2706.21a37.954,37.954,0,0,1-9.116-1.151,32.559,32.559,0,0,1-16.146-7.952c-.8-.615-1.6-1.225-2.381-1.885,0,0-7.809-8.376-8.218-18.916l-.01-.119Z" transform="translate(-2670.172 -4050.988)" fill="#fff"/>
</svg>
