<svg xmlns="http://www.w3.org/2000/svg" width="38.308" height="25.127" viewBox="0 0 38.308 25.127">
  <path id="Tracé_29" data-name="Tracé 29" d="M2670.232,4064.661h0a12,12,0,0,1,2.807-8.924,11.817,11.817,0,0,1,6.4-4.356,12.464,12.464,0,0,1,15.2,8.868h.01a27.885,27.885,0,0,0,2.87,6.876c3.724,5.394,7.408,8.746,10.962,8.988h-24.595a14.449,14.449,0,0,1-3.469-.438,12.393,12.393,0,0,1-6.144-3.026c-.305-.234-.61-.466-.906-.717a12.653,12.653,0,0,1-3.127-7.2l0-.045Z" transform="translate(-2670.172 -4050.988)" fill="#fff"/>
</svg>
