<svg xmlns="http://www.w3.org/2000/svg" width="153.233" height="83.398" viewBox="0 0 153.233 83.398">
  <g id="Groupe_51" data-name="Groupe 51" transform="translate(-581.821 -3648.861)">
    <path id="Tracé_30" data-name="Tracé 30" d="M2670.294,4078.859h0c-.54-5.489.529-11.445,5.721-18.191a24.086,24.086,0,0,1,13.04-8.878,25.406,25.406,0,0,1,30.984,18.076h.019a56.856,56.856,0,0,0,5.851,14.017c7.591,11,15.1,17.828,22.344,18.321h-50.132a29.443,29.443,0,0,1-7.071-.893,25.254,25.254,0,0,1-12.523-6.167c-.623-.477-1.244-.95-1.847-1.462,0,0-6.058-6.5-6.374-14.672l-.008-.092Z" transform="translate(320.486 -1194.483) rotate(30)" fill="#2a5393"/>
    <path id="Tracé_31" data-name="Tracé 31" d="M2670.294,4078.859h0c-.54-5.489.529-11.445,5.721-18.191a24.086,24.086,0,0,1,13.04-8.878,25.406,25.406,0,0,1,30.984,18.076h.019a56.856,56.856,0,0,0,5.851,14.017c7.591,11,15.1,17.828,22.344,18.321h-50.132a29.443,29.443,0,0,1-7.071-.893,25.254,25.254,0,0,1-12.523-6.167c-.623-.477-1.244-.95-1.847-1.462,0,0-6.058-6.5-6.374-14.672l-.008-.092Z" transform="translate(380.486 -1194.483) rotate(30)" fill="#2a5393"/>
  </g>
</svg>
