<svg xmlns="http://www.w3.org/2000/svg" width="54.104" height="40.779" viewBox="0 0 54.104 40.779">
  <g id="Groupe_6" data-name="Groupe 6" transform="translate(258.104 -1427.956) rotate(90)">
    <path id="Tracé_16" data-name="Tracé 16" d="M2783.806,4041.627c1.793-4.377,4.715-7.52,8.353-7.52h10.5c-6.734.459-14.578,26.962-20.02,40.52-3.319,8.27-7.685,11.469-14.508,11.469h-2.884C2769.334,4082.355,2778.875,4053.672,2783.806,4041.627Z" transform="translate(-1336.003 -3829.607)" fill="#fdc41f" stroke="#fdc41f" stroke-width="1"/>
    <path id="Tracé_17" data-name="Tracé 17" d="M2783.806,4041.627c1.793-4.377,4.715-7.52,8.353-7.52h10.5c-6.734.459-14.578,26.962-20.02,40.52-3.319,8.27-7.685,11.469-14.508,11.469h-2.884C2769.334,4082.355,2778.875,4053.672,2783.806,4041.627Z" transform="translate(-1333.957 -3828.491)" fill="none" stroke="#fdc41f" stroke-width="1"/>
  </g>
</svg>
