<svg xmlns="http://www.w3.org/2000/svg" width="165.67" height="108.665" viewBox="0 0 165.67 108.665">
  <path id="Tracé_18" data-name="Tracé 18" d="M2670.432,4110.121h.008c-1.146-11.645,1.121-24.281,12.139-38.594,6.955-9.035,16.6-16.09,27.666-18.836,30.729-7.609,58.551,11.176,65.736,38.352h.041s4.256,16.754,12.414,29.738c16.105,23.328,32.037,37.824,47.406,38.871H2729.479a62.478,62.478,0,0,1-15-1.895,53.589,53.589,0,0,1-26.57-13.086c-1.32-1.012-2.639-2.016-3.918-3.1,0,0-12.852-13.785-13.523-31.129l-.018-.2Z" transform="translate(-2670.172 -4050.988)" fill="#2a5393"/>
</svg>
