<svg id="Groupe_1" data-name="Groupe 1" xmlns="http://www.w3.org/2000/svg" width="189.841" height="45.188" viewBox="0 0 189.841 45.188">
  <path id="Tracé_1" data-name="Tracé 1" d="M2773.756,4037.555c.819-2.007,2.159-3.445,3.828-3.445h4.811c-3.084.208-6.682,12.357-9.174,18.572-1.518,3.794-3.525,5.255-6.651,5.255h-1.32C2767.121,4056.222,2771.5,4043.075,2773.756,4037.555Z" transform="translate(-2671.385 -4023.911)" fill="#fdc42d"/>
  <path id="Tracé_2" data-name="Tracé 2" d="M2517.85,4052.492q2.7-1.627,2.7-5.5v-34.568c0-2.656-.876-4.174-2.493-5.073h13.48a4.186,4.186,0,0,0-2.4,4.079v35.421c0,2.2.379,4.655,2.876,5.642Zm21.979-.3a12.989,12.989,0,0,0,6.7-4.989c2.326-3.38,3.824-9.933,3.824-16.694s-1.047-12.107-3.107-15.734c-2.181-3.794-4.841-6.158-8.184-7.239,13.059,1.244,20.731,9.235,20.731,21.907a21.761,21.761,0,0,1-19.965,22.749Z" transform="translate(-2517.85 -4007.304)" fill="#2a5393"/>
  <path id="Tracé_3" data-name="Tracé 3" d="M2647.421,4046.871v-35.137c0-2.174.672-3.669,2.034-4.5H2636.24c1.776,1,2.74,2.8,2.74,6.071v33.217c0,3.217-.865,4.9-2.724,5.854h13.825C2648.29,4051.477,2647.421,4049.636,2647.421,4046.871Z" transform="translate(-2591.322 -4007.23)" fill="#2a5393"/>
  <path id="Tracé_4" data-name="Tracé 4" d="M2674.927,4126.28h-.417S2674.666,4126.284,2674.927,4126.28Z" transform="translate(-2615.072 -4081.111)" fill="#4665a3"/>
  <path id="Tracé_5" data-name="Tracé 5" d="M2688.729,4028.738c1.958,0,8.294-2.337,8.305-11.762,0-10.195-11.542-9.557-11.542-9.557l-6.985-.019c1.347.019,10.9.493,11,10.476.049,3.976.038,6.905-1.309,8.726h0a3.121,3.121,0,0,1-.315.379,4.459,4.459,0,0,1-.759.637,7.587,7.587,0,0,1-3.764,1.286,13.886,13.886,0,0,1,4.955,1.6h0c3.077,1.654,4.667,4.814,4.488,11.041-.3,10.244-12.5,10.927-14.8,10.957,1.161,0,4.689,0,9.865.019,6.4,0,13.252-2.068,13.279-11.481S2694.556,4029.444,2688.729,4028.738Z" transform="translate(-2617.244 -4007.335)" fill="#2a5393"/>
  <path id="Tracé_6" data-name="Tracé 6" d="M2670.184,4053.683h0a2.39,2.39,0,0,1,.558-1.764,2.336,2.336,0,0,1,1.263-.862,2.463,2.463,0,0,1,3,1.753h0a5.473,5.473,0,0,0,.569,1.362c.736,1.066,1.464,1.73,2.166,1.776h-4.864a2.762,2.762,0,0,1-.687-.087,2.476,2.476,0,0,1-1.214-.6l-.178-.144a2.5,2.5,0,0,1-.618-1.423h0Z" transform="translate(-2612.381 -4034.379)" fill="#2a5393"/>
  <path id="Tracé_7" data-name="Tracé 7" d="M2563.794,4053.683h0a2.389,2.389,0,0,1,.558-1.764,2.336,2.336,0,0,1,1.263-.862,2.463,2.463,0,0,1,3,1.753h0a5.552,5.552,0,0,0,.565,1.362c.736,1.066,1.468,1.73,2.17,1.776h-4.864a2.762,2.762,0,0,1-.687-.087,2.476,2.476,0,0,1-1.214-.6l-.178-.144a2.5,2.5,0,0,1-.618-1.423h0Z" transform="translate(-2546.356 -4034.379)" fill="#2a5393"/>
  <path id="Tracé_8" data-name="Tracé 8" d="M2833.727,4057.27a5.643,5.643,0,0,1-1.574,1.419,4.175,4.175,0,0,1-2.056.482,4.1,4.1,0,0,1-3.714-1.935,7.942,7.942,0,0,1-1-4.249,7.849,7.849,0,0,1,1.021-4.253,4.054,4.054,0,0,1,3.7-1.935,4.193,4.193,0,0,1,2.056.486,5.622,5.622,0,0,1,1.574,1.415l-.656.554a5.137,5.137,0,0,0-1.3-1.176,3.305,3.305,0,0,0-1.677-.4q-3.836,0-3.836,5.312t3.836,5.312a3.308,3.308,0,0,0,1.677-.4,5.62,5.62,0,0,0,1.3-1.176Z" transform="translate(-2708.701 -4031.785)" fill="#575756"/>
  <path id="Tracé_9" data-name="Tracé 9" d="M2864.718,4061.228q0,4.249-3.441,4.249t-3.457-4.249q0-4.268,3.457-4.268T2864.718,4061.228Zm-.831,0a4.683,4.683,0,0,0-.5-2.421,2.274,2.274,0,0,0-2.109-1.021,2.3,2.3,0,0,0-2.125,1.021,6.27,6.27,0,0,0,0,4.822,2.275,2.275,0,0,0,2.11,1.021,2.3,2.3,0,0,0,2.125-1.021,4.638,4.638,0,0,0,.512-2.4Z" transform="translate(-2728.833 -4038.092)" fill="#575756"/>
  <path id="Tracé_10" data-name="Tracé 10" d="M2894.086,4065.34h-.831v-4.629a3.605,3.605,0,0,0-.5-2.109,2.293,2.293,0,0,0-1.954-.8,2.429,2.429,0,0,0-1.666.588,1.866,1.866,0,0,0-.668,1.453v5.494h-.827v-8.26h.827v.9a2.9,2.9,0,0,1,2.345-.986q3.286,0,3.286,3.733Z" transform="translate(-2747.339 -4038.11)" fill="#575756"/>
  <path id="Tracé_11" data-name="Tracé 11" d="M2921.9,4062.979a2.158,2.158,0,0,1-.968,1.848,3.357,3.357,0,0,1-2.056.622,3.916,3.916,0,0,1-2.125-.535,2.5,2.5,0,0,1-1.191-1.8l.812-.137c.2,1.093,1.043,1.643,2.5,1.643a2.7,2.7,0,0,0,1.468-.379,1.4,1.4,0,0,0,.729-1.26q0-1-1.351-1.434l-2.5-.691a1.885,1.885,0,0,1-1.347-1.817,1.833,1.833,0,0,1,.88-1.639,3.366,3.366,0,0,1,1.866-.486,3.01,3.01,0,0,1,2.971,1.662l-.759.36a2.251,2.251,0,0,0-2.227-1.191q-1.916,0-1.92,1.294,0,.831,1.351,1.229,1.259.345,2.5.71a2.079,2.079,0,0,1,1.362,2Z" transform="translate(-2764.666 -4038.063)" fill="#575756"/>
  <path id="Tracé_12" data-name="Tracé 12" d="M2949.209,4060.72v.69h-5.824q.049,3.233,2.834,3.233a2.522,2.522,0,0,0,2.125-.918l.657.52a3.313,3.313,0,0,1-2.781,1.226q-3.7,0-3.7-4.25t3.525-4.268a2.84,2.84,0,0,1,2.436,1.138A4.349,4.349,0,0,1,2949.209,4060.72Zm-.85-.14q-.049-2.8-2.314-2.8-2.47,0-2.656,2.8Z" transform="translate(-2781.397 -4038.085)" fill="#575756"/>
  <path id="Tracé_13" data-name="Tracé 13" d="M2972.774,4047.832a.622.622,0,0,1-.622.622.6.6,0,0,1-.44-.182.6.6,0,0,1-.182-.44.623.623,0,0,1,.623-.622.6.6,0,0,1,.44.182.6.6,0,0,1,.182.44Zm-.209,11.439h-.827v-8.26h.827Z" transform="translate(-2799.4 -4032.041)" fill="#575756"/>
  <path id="Tracé_14" data-name="Tracé 14" d="M2989,4059.271c-1.108,0-1.658-.645-1.658-1.935V4047.21h.827v10.126c0,.736.277,1.108.831,1.108Z" transform="translate(-2809.212 -4032.041)" fill="#575756"/>
  <path id="Tracé_15" data-name="Tracé 15" d="M3007.84,4062.979a2.159,2.159,0,0,1-.968,1.848,3.358,3.358,0,0,1-2.056.622,3.915,3.915,0,0,1-2.125-.535,2.5,2.5,0,0,1-1.191-1.8l.812-.137c.208,1.093,1.043,1.643,2.5,1.643a2.693,2.693,0,0,0,1.468-.379,1.4,1.4,0,0,0,.729-1.26q0-1-1.351-1.434l-2.5-.691a1.885,1.885,0,0,1-1.347-1.817,1.832,1.832,0,0,1,.88-1.639,3.367,3.367,0,0,1,1.867-.486,3.005,3.005,0,0,1,2.971,1.662l-.74.36a2.264,2.264,0,0,0-2.231-1.191q-1.916,0-1.92,1.294,0,.831,1.351,1.229,1.26.345,2.5.71A2.079,2.079,0,0,1,3007.84,4062.979Z" transform="translate(-2817.999 -4038.063)" fill="#575756"/>
</svg>
