<svg xmlns="http://www.w3.org/2000/svg" width="576.661" height="775.318" viewBox="0 0 576.661 775.318">
  <g id="Groupe_60" data-name="Groupe 60" transform="translate(-1427.956 -204)">
    <path id="Tracé_16" data-name="Tracé 16" d="M3035.873,4143.754c26.146-63.827,68.754-109.647,121.8-109.647H3310.76c-98.193,6.7-212.566,393.14-291.916,590.826-48.39,120.586-112.064,167.226-211.545,167.226h-42.053C2824.861,4737.624,2963.971,4319.388,3035.873,4143.754Z" transform="translate(-1336.003 -3829.607)" fill="#fff" stroke="#fff" stroke-width="1"/>
    <path id="Tracé_17" data-name="Tracé 17" d="M3035.873,4143.754c26.146-63.827,68.754-109.647,121.8-109.647H3310.76c-98.193,6.7-212.566,393.14-291.916,590.826-48.39,120.586-112.064,167.226-211.545,167.226h-42.053C2824.861,4737.624,2963.971,4319.388,3035.873,4143.754Z" transform="translate(-1306.177 -3813.341)" fill="none" stroke="#fff" stroke-width="1"/>
  </g>
</svg>
